#!OML:ASF H:\Not Pregnant\Project 1\Capture day 1\Session 1\non-pregnant.ASF
:FULLY-SPECIFIED
:DEGREES
1197
root -6.18374 16.1465 34.5604 178.647 -73.5191 -167.238
lowerback -11.6802 0.732061 0.572326
upperback -4.02817 0.705662 0.396303
thorax 2.34247 0.270591 0.180363
lowerneck 42.6122 -14.9862 -25.7508
upperneck -32.0119 -29.5248 52.6032
head -1.4281 -21.7284 31.4833
rclavicle 2.81529e-014 0
rhumerus -33.428 18.1009 -98.3067
rradius 26.5297
rwrist 19.5324
rhand -8.96118 2.80141
rfingers 7.12502
rthumb 16.9838 -26.4761
lclavicle 2.81529e-014 0
lhumerus -40.9749 -14.9797 97.5423
lradius 31.9804
lwrist 36.0068
lhand -14.8147 -13.7245
lfingers 7.12502
lthumb 11.3435 15.9487
rfemur -13.2055 7.45637 21.5852
rtibia 19.4947
rfoot -17.0092 4.20282
rtoes -19.8836
lfemur -10.6794 0.421509 -15.3
ltibia 16.8866
lfoot -15.8071 5.5715
ltoes -26.1957
1198
root -6.18636 16.1467 34.5504 178.438 -73.5441 -167.027
lowerback -11.6973 0.731724 0.642499
upperback -4.03288 0.695082 0.43861
thorax 2.34721 0.264944 0.183457
lowerneck 42.6115 -14.9957 -25.7915
upperneck -31.9235 -29.5609 52.5857
head -1.37899 -21.7412 31.4104
rclavicle -3.73094e-014 -3.97569e-015
rhumerus -33.4306 17.9875 -98.2325
rradius 26.4909
rwrist 19.6406
rhand -8.88127 2.88811
rfingers 7.12502
rthumb 17.0607 -26.3827
lclavicle -3.73094e-014 -3.97569e-015
lhumerus -40.9776 -14.9731 97.5661
lradius 32.0235
lwrist 36.1233
lhand -14.7598 -13.7065
lfingers 7.12502
lthumb 11.3964 15.9638
rfemur -13.109 7.31793 21.6893
rtibia 19.3633
rfoot -17.0104 4.35131
rtoes -19.7509
lfemur -10.6833 0.352279 -15.2028
ltibia 16.9421
lfoot -15.8094 5.64295
ltoes -26.2877
1199
root -6.18867 16.1469 34.5399 178.219 -73.5642 -166.807
lowerback -11.7121 0.727613 0.710132
upperback -4.03721 0.679543 0.487476
thorax 2.35098 0.256856 0.194095
lowerneck 42.6027 -15.0005 -25.8621
upperneck -31.8329 -29.609 52.5753
head -1.31166 -21.7598 31.3344
rclavicle 1.77912e-014 -5.1684e-015
rhumerus -33.4294 17.8934 -98.1541
rradius 26.4507
rwrist 19.7493
rhand -8.78362 2.98407
rfingers 7.12502
rthumb 17.1547 -26.2786
lclavicle 1.77912e-014 -5.1684e-015
lhumerus -40.9816 -14.9515 97.5929
lradius 32.0484
lwrist 36.1203
lhand -14.7486 -13.7177
lfingers 7.12502
lthumb 11.4072 15.952
rfemur -13.0124 7.21367 21.7971
rtibia 19.2337
rfoot -17.0025 4.47054
rtoes -19.616
lfemur -10.6852 0.292486 -15.1002
ltibia 16.9949
lfoot -15.8122 5.70731
ltoes -26.3588
1200
root -6.1911 16.1471 34.5296 178.016 -73.5925 -166.604
lowerback -11.7313 0.72044 0.775546
upperback -4.03959 0.660249 0.533384
thorax 2.35914 0.246927 0.202458
lowerneck 42.5969 -15.002 -25.9393
upperneck -31.7478 -29.661 52.5728
head -1.24022 -21.7823 31.2683
rclavicle 3.28492e-014 -8.74653e-015
rhumerus -33.4158 17.7781 -98.0596
rradius 26.4023
rwrist 19.8933
rhand -8.66101 3.12576
rfingers 7.12502
rthumb 17.2727 -26.1266
lclavicle 3.28492e-014 -8.74653e-015
lhumerus -40.9857 -14.9317 97.6169
lradius 32.0796
lwrist 36.1353
lhand -14.736 -13.7257
lfingers 7.12502
lthumb 11.4193 15.9433
rfemur -12.9129 7.12149 21.8968
rtibia 19.1051
rfoot -16.992 4.56608
rtoes -19.4912
lfemur -10.6856 0.237784 -15.0051
ltibia 17.0436
lfoot -15.8202 5.75343
ltoes -26.4031
1201
root -6.19332 16.1472 34.5191 177.805 -73.6203 -166.394
lowerback -11.7498 0.713429 0.841121
upperback -4.04106 0.641184 0.578417
thorax 2.36789 0.237131 0.20985
lowerneck 42.596 -14.9991 -25.9978
upperneck -31.6681 -29.698 52.5677
head -1.18466 -21.798 31.2178
rclavicle -1.43746e-014 2.38542e-015
rhumerus -33.4165 17.7127 -98.0008
rradius 26.3731
rwrist 19.9502
rhand -8.59157 3.18315
rfingers 7.12502
rthumb 17.3396 -26.0634
lclavicle -1.43746e-014 2.38542e-015
lhumerus -40.9897 -14.9116 97.6363
lradius 32.1126
lwrist 36.1517
lhand -14.7231 -13.7363
lfingers 7.12502
lthumb 11.4318 15.9321
rfemur -12.8126 7.04765 21.9981
rtibia 18.9778
rfoot -16.9762 4.64585
rtoes -19.3601
lfemur -10.6845 0.187678 -14.907
ltibia 17.0902
lfoot -15.8287 5.79583
ltoes -26.4591
1202
root -6.19533 16.1473 34.5087 177.603 -73.649 -166.195
lowerback -11.7673 0.719384 0.911183
upperback -4.04116 0.639521 0.606228
thorax 2.37779 0.235999 0.1992
lowerneck 42.6053 -15.013 -26.0013
upperneck -31.6053 -29.7245 52.5617
head -1.15536 -21.812 31.174
rclavicle -1.78161e-014 1.98785e-015
rhumerus -33.4045 17.5855 -97.9354
rradius 26.3409
rwrist 20.0241
rhand -8.50872 3.26728
rfingers 7.12502
rthumb 17.4193 -25.9722
lclavicle -1.78161e-014 1.98785e-015
lhumerus -40.9971 -14.9426 97.656
lradius 32.153
lwrist 36.1919
lhand -14.7415 -13.7457
lfingers 7.12502
lthumb 11.4141 15.9236
rfemur -12.7157 6.97265 22.0955
rtibia 18.8558
rfoot -16.9619 4.7281
rtoes -19.2251
lfemur -10.682 0.1436 -14.8127
ltibia 17.1329
lfoot -15.8374 5.83313
ltoes -26.5281
1203
root -6.19711 16.1473 34.4986 177.412 -73.6795 -166.004
lowerback -11.7825 0.730083 0.985117
upperback -4.04264 0.643969 0.626296
thorax 2.38516 0.237857 0.179137
lowerneck 42.624 -15.0253 -25.9818
upperneck -31.5515 -29.7399 52.5585
head -1.14082 -21.8233 31.149
rclavicle 7.40473e-015 -3.97569e-016
rhumerus -33.4203 17.5431 -97.929
rradius 26.3414
rwrist 19.9545
rhand -8.49386 3.23335
rfingers 7.12502
rthumb 17.4336 -26.0049
lclavicle 7.40473e-015 -3.97569e-016
lhumerus -41.0051 -14.9827 97.6712
lradius 32.1967
lwrist 36.255
lhand -14.773 -13.7562
lfingers 7.12502
lthumb 11.3837 15.9148
rfemur -12.6269 6.87703 22.1899
rtibia 18.7426
rfoot -16.957 4.82419
rtoes -19.113
lfemur -10.6816 0.0976608 -14.7225
ltibia 17.1734
lfoot -15.8429 5.8725
ltoes -26.618
1204
root -6.19865 16.1471 34.4889 177.231 -73.711 -165.824
lowerback -11.7943 0.745532 1.06393
upperback -4.04531 0.654466 0.638765
thorax 2.38962 0.242675 0.149231
lowerneck 42.6413 -15.045 -25.9612
upperneck -31.4995 -29.7663 52.5633
head -1.11827 -21.8426 31.1192
rclavicle -4.22417e-014 9.93923e-015
rhumerus -33.4415 17.5236 -97.9403
rradius 26.3535
rwrist 19.8504
rhand -8.46918 3.18562
rfingers 7.12502
rthumb 17.4573 -26.0505
lclavicle -4.22417e-014 9.93923e-015
lhumerus -41.0162 -15.0376 97.6861
lradius 32.2488
lwrist 36.3462
lhand -14.7983 -13.7557
lfingers 7.12502
lthumb 11.3593 15.9166
rfemur -12.5482 6.74726 22.2816
rtibia 18.6407
rfoot -16.9654 4.94793
rtoes -19.0159
lfemur -10.6836 0.0509613 -14.6366
ltibia 17.2133
lfoot -15.8466 5.91339
ltoes -26.718
1205
root -6.20002 16.1468 34.4794 177.063 -73.7448 -165.657
lowerback -11.8034 0.765958 1.14863
upperback -4.04845 0.671352 0.640615
thorax 2.39238 0.250637 0.105836
lowerneck 42.6458 -15.0752 -25.9436
upperneck -31.4388 -29.8082 52.5751
head -1.07979 -21.8713 31.0715
rclavicle 1.54182e-014 1.74931e-014
rhumerus -33.4557 17.497 -97.9514
rradius 26.363
rwrist 19.7655
rhand -8.41024 3.18532
rfingers 7.12502
rthumb 17.5141 -26.0458
lclavicle 1.54182e-014 1.74931e-014
lhumerus -41.0297 -15.1099 97.6957
lradius 32.3005
lwrist 36.4354
lhand -14.8184 -13.7549
lfingers 7.12502
lthumb 11.3399 15.9185
rfemur -12.4768 6.58557 22.3701
rtibia 18.5492
rfoot -16.9861 5.09937
rtoes -18.9166
lfemur -10.6874 0.00491028 -14.5558
ltibia 17.2546
lfoot -15.8507 5.95517
ltoes -26.8298
1206
root -6.20106 16.1464 34.4699 176.901 -73.7777 -165.495
lowerback -11.8083 0.789932 1.23734
upperback -4.05224 0.692788 0.636873
thorax 2.3924 0.260835 0.0549597
lowerneck 42.6543 -15.1062 -25.9044
upperneck -31.3961 -29.8342 52.5803
head -1.06319 -21.8908 31.0349
rclavicle -4.74598e-015 9.14409e-015
rhumerus -33.4515 17.4309 -97.9384
rradius 26.3559
rwrist 19.7574
rhand -8.30443 3.27142
rfingers 7.12502
rthumb 17.6159 -25.9505
lclavicle -4.74598e-015 9.14409e-015
lhumerus -41.0421 -15.1854 97.6968
lradius 32.3544
lwrist 36.5484
lhand -14.7942 -13.7426
lfingers 7.12502
lthumb 11.3632 15.9296
rfemur -12.4118 6.40436 22.4578
rtibia 18.4648
rfoot -17.0133 5.26898
rtoes -18.8144
lfemur -10.6948 -0.0382682 -14.477
ltibia 17.2999
lfoot -15.8567 5.9959
ltoes -26.9405
1207
root -6.20181 16.146 34.4604 176.744 -73.81 -165.34
lowerback -11.8099 0.811346 1.3243
upperback -4.05676 0.711059 0.633992
thorax 2.38982 0.269448 0.00549493
lowerneck 42.6658 -15.1232 -25.8452
upperneck -31.3725 -29.8214 52.5648
head -1.08511 -21.885 31.0209
rclavicle 3.07868e-014 1.15295e-014
rhumerus -33.4345 17.3392 -97.9041
rradius 26.334
rwrist 19.8255
rhand -8.16787 3.4236
rfingers 7.12502
rthumb 17.7473 -25.7865
lclavicle 3.07868e-014 1.15295e-014
lhumerus -41.0559 -15.2478 97.6959
lradius 32.3954
lwrist 36.5996
lhand -14.7605 -13.7388
lfingers 7.12502
lthumb 11.3958 15.9315
rfemur -12.3484 6.2395 22.5428
rtibia 18.3843
rfoot -17.0353 5.42414
rtoes -18.7046
lfemur -10.7044 -0.0805548 -14.3996
ltibia 17.3495
lfoot -15.8642 6.03682
ltoes -27.045
